<svg width="282" height="232" viewBox="0 0 282 232" fill="none" xmlns="http://www.w3.org/2000/svg">
<g filter="url(#filter0_di_804_3)">
<path d="M148.977 143.935C148.977 118.555 169.552 97.9793 194.932 97.9791C220.312 97.9791 240.888 118.555 240.888 143.935C240.888 158.568 234.048 171.604 223.392 180.02C215.565 186.201 211.532 178.706 188.735 178.706C165.939 178.706 174.3 186.201 166.473 180.02C155.817 171.604 148.977 158.568 148.977 143.935Z" fill="#FFFFFE" shape-rendering="crispEdges"/>
<path d="M38.9583 143.935C38.9583 118.555 59.5329 97.9793 84.913 97.9791C110.293 97.9791 130.869 118.555 130.869 143.935C130.869 158.568 124.029 171.604 113.373 180.02C105.546 186.201 114.526 178.706 90.7851 178.706C67.0442 178.706 64.2808 186.201 56.4543 180.02C45.7978 171.604 38.9584 158.568 38.9583 143.935Z" fill="#FFFFFE" shape-rendering="crispEdges"/>
<path fill-rule="evenodd" clip-rule="evenodd" d="M5.98632 74.5552C6.27983 71.8999 6.35356 68.9656 6.28157 65.8457C6.22557 63.4188 5.88391 58.2722 5.88391 58.2722L5.34372 52.0945C5.34372 52.0945 5.02559 48.9192 4.82079 46.8848C4.55193 44.2138 4.12977 40.0455 4.12977 40.0455C4.12977 40.0455 3.82358 36.7937 3.69234 35.1948C3.44915 32.2319 3.18898 26.5879 3.18898 26.5879C3.18898 26.5879 2.90926 20.652 3.51955 16.9263C4.08649 13.4653 4.03579 11.1954 6.01331 8.29892C7.3322 6.36717 8.25676 5.21438 10.3469 4.16441C12.7194 2.97257 14.3747 2.99897 17.0904 3.29914C21.1096 3.74351 31.2681 8.29892 31.2681 8.29892L36.1018 11.0271C36.1018 11.0271 39.6274 13.2223 41.4277 14.4431C43.1274 15.5955 44.8456 16.8179 46.5724 18.1013C49.1649 20.0283 54.3722 24.2648 54.3722 24.2648L57.7149 27.1285L62.5073 31.4731L69.7246 38.5936L73.5382 42.6789C73.5382 42.6789 75.3962 44.7428 76.5512 46.0962C82.1749 52.6859 86.2244 58.2463 89.5814 64.0495H175.309C176.845 61.552 178.8 58.9898 181.094 56.4053C183.14 54.1006 187.986 49.4685 187.986 49.4685C187.986 49.4685 192.483 45.5159 194.932 43.5725C199.636 39.8406 210.147 32.8239 210.147 32.8239C210.147 32.8239 212.414 31.4062 213.558 30.7145C214.94 29.8793 217.729 28.2631 217.729 28.2631C217.729 28.2631 223.698 24.9547 226.68 23.4544C229.018 22.2784 233.648 20.1391 233.648 20.1391C233.648 20.1391 237.258 18.5626 239.027 17.8518C240.851 17.1191 242.647 16.443 244.404 15.8291C247.999 14.573 254.619 12.8883 254.619 12.8883C254.619 12.8883 256.082 12.5855 256.793 12.4595C258.149 12.219 260.696 11.9289 260.696 11.9289C260.696 11.9289 264.591 11.7406 266.266 11.9289C274.062 12.8058 276.754 17.7868 276.692 24.9759C276.683 26.0264 276.497 28.2631 276.497 28.2631C276.497 28.2631 276.176 30.7944 275.933 32.1259C275.57 34.1167 274.53 38.3498 274.53 38.3498C274.53 38.3498 273.439 42.3158 272.814 44.3624C272.085 46.7483 270.48 51.6362 270.48 51.6362L267.692 59.9542C267.692 59.9542 266.78 62.699 266.34 64.0585C265.682 66.0917 264.471 70.0706 264.471 70.0706C264.471 70.0706 264.034 71.5735 263.828 72.3148C263.435 73.7268 262.752 76.467 262.752 76.467L261.402 83.8806C261.073 85.8305 260.888 86.9238 260.559 88.8737L259.618 92.3679C259.618 92.3679 259 94.2375 258.647 95.1497C258.071 96.6414 256.696 99.4974 256.696 99.4974C256.696 99.4974 256.268 100.318 255.979 100.836C255.485 101.722 254.649 103.067 254.649 103.067C254.649 103.067 253.551 104.731 252.964 105.532C253.476 107.089 254.314 110.286 254.314 110.286L254.818 112.586C254.818 112.586 255.085 113.99 255.199 114.698C255.29 115.255 255.373 115.815 255.447 116.378C255.572 117.31 255.756 119.195 255.756 119.195C255.756 119.195 255.895 121.063 255.932 122.006C255.963 122.804 255.979 123.605 255.979 124.411V182.317C255.979 182.317 256.326 226.265 141.701 226.265C27.0756 226.265 22.0684 182.317 22.0684 182.317C22.0684 182.317 22.0684 175.775 22.0684 171.583C22.0684 169.138 22.0684 167.766 22.0684 165.321C22.0684 163.117 21.7145 161.852 22.0684 159.677C22.2585 158.509 22.6082 157.905 22.8111 156.739C23.4721 152.941 22.0684 146.896 22.0684 146.896V124.411C22.0684 121.186 22.3241 118.02 22.8111 114.932C21.0467 113.529 19.393 111.998 17.8625 110.356C16.727 109.138 15.6789 107.965 14.5951 106.701C13.5111 105.077 12.4363 103.324 11.4802 101.621C11.0523 100.859 10.6461 100.084 10.2622 99.2971C9.86448 98.4816 10.4579 99.6934 9.14195 96.8125C7.82603 93.9316 7.39798 91.7925 7.39798 91.7925C7.39798 91.7925 6.66424 88.9266 6.40314 87.4589C6.12605 85.9014 5.81796 82.7181 5.81796 82.7181C5.81796 82.7181 5.68126 77.3147 5.98632 74.5552ZM84.913 97.9791C59.5329 97.9793 38.9583 118.555 38.9583 143.935C38.9584 158.568 45.7978 171.604 56.4543 180.02C64.2808 186.201 67.0442 178.706 90.7851 178.706C114.526 178.706 105.546 186.201 113.373 180.02C124.029 171.604 130.869 158.568 130.869 143.935C130.869 118.555 110.293 97.9791 84.913 97.9791ZM194.932 97.9791C169.552 97.9793 148.977 118.555 148.977 143.935C148.977 158.568 155.817 171.604 166.473 180.02C174.3 186.201 165.939 178.706 188.735 178.706C211.532 178.706 215.565 186.201 223.392 180.02C234.048 171.604 240.888 158.568 240.888 143.935C240.888 118.555 220.312 97.9791 194.932 97.9791Z" fill="#49C9D5" shape-rendering="crispEdges"/>
<path d="M121.813 146.896C121.813 160.23 111.004 171.04 97.6689 171.04C84.3342 171.04 73.5243 160.23 73.5243 146.896C73.5243 133.561 84.3342 122.751 97.6689 122.751C111.004 122.751 121.813 133.561 121.813 146.896Z" fill="#49C9D5" shape-rendering="crispEdges"/>
<path d="M206.319 146.896C206.319 160.23 195.509 171.04 182.175 171.04C168.84 171.04 158.03 160.23 158.03 146.896C158.03 133.561 168.84 122.751 182.175 122.751C195.509 122.751 206.319 133.561 206.319 146.896Z" fill="#49C9D5" shape-rendering="crispEdges"/>
<path d="M121.813 146.896C121.813 160.23 111.004 171.04 97.6689 171.04C84.3342 171.04 73.5243 160.23 73.5243 146.896C73.5243 133.561 84.3342 122.751 97.6689 122.751C111.004 122.751 121.813 133.561 121.813 146.896Z" fill="#3797A0" shape-rendering="crispEdges"/>
<path d="M206.319 146.896C206.319 160.23 195.509 171.04 182.175 171.04C168.84 171.04 158.03 160.23 158.03 146.896C158.03 133.561 168.84 122.751 182.175 122.751C195.509 122.751 206.319 133.561 206.319 146.896Z" fill="#3797A0" shape-rendering="crispEdges"/>
<path fill-rule="evenodd" clip-rule="evenodd" d="M5.98632 74.5552C6.27983 71.8999 6.35356 68.9656 6.28157 65.8457C6.22557 63.4188 5.88391 58.2722 5.88391 58.2722L5.34372 52.0945C5.34372 52.0945 5.02559 48.9192 4.82079 46.8848C4.55193 44.2138 4.12977 40.0455 4.12977 40.0455C4.12977 40.0455 3.82358 36.7937 3.69234 35.1948C3.44915 32.2319 3.18898 26.5879 3.18898 26.5879C3.18898 26.5879 2.90926 20.652 3.51955 16.9263C4.08649 13.4653 4.03579 11.1954 6.01331 8.29892C7.3322 6.36717 8.25676 5.21438 10.3469 4.16441C12.7194 2.97257 14.3747 2.99897 17.0904 3.29914C21.1096 3.74351 31.2681 8.29892 31.2681 8.29892L36.1018 11.0271C36.1018 11.0271 39.6274 13.2223 41.4277 14.4431C43.1274 15.5955 44.8456 16.8179 46.5724 18.1013C49.1649 20.0283 54.3722 24.2648 54.3722 24.2648L57.7149 27.1285L62.5073 31.4731L69.7246 38.5936L73.5382 42.6789C73.5382 42.6789 75.3962 44.7428 76.5512 46.0962C82.1749 52.6859 86.2244 58.2463 89.5814 64.0495H175.309C176.845 61.552 178.8 58.9898 181.094 56.4053C183.14 54.1006 187.986 49.4685 187.986 49.4685C187.986 49.4685 192.483 45.5159 194.932 43.5725C199.636 39.8406 210.147 32.8239 210.147 32.8239C210.147 32.8239 212.414 31.4062 213.558 30.7145C214.94 29.8793 217.729 28.2631 217.729 28.2631C217.729 28.2631 223.698 24.9547 226.68 23.4544C229.018 22.2784 233.648 20.1391 233.648 20.1391C233.648 20.1391 237.258 18.5626 239.027 17.8518C240.851 17.1191 242.647 16.443 244.404 15.8291C247.999 14.573 254.619 12.8883 254.619 12.8883C254.619 12.8883 256.082 12.5855 256.793 12.4595C258.149 12.219 260.696 11.9289 260.696 11.9289C260.696 11.9289 264.591 11.7406 266.266 11.9289C274.062 12.8058 276.754 17.7868 276.692 24.9759C276.683 26.0264 276.497 28.2631 276.497 28.2631C276.497 28.2631 276.176 30.7944 275.933 32.1259C275.57 34.1167 274.53 38.3498 274.53 38.3498C274.53 38.3498 273.439 42.3158 272.814 44.3624C272.085 46.7483 270.48 51.6362 270.48 51.6362L267.692 59.9542C267.692 59.9542 266.78 62.699 266.34 64.0585C265.682 66.0917 264.471 70.0706 264.471 70.0706C264.471 70.0706 264.034 71.5735 263.828 72.3148C263.435 73.7268 262.752 76.467 262.752 76.467L261.402 83.8806C261.073 85.8305 260.888 86.9238 260.559 88.8737L259.618 92.3679C259.618 92.3679 259 94.2375 258.647 95.1497C258.071 96.6414 256.696 99.4974 256.696 99.4974C256.696 99.4974 256.268 100.318 255.979 100.836C255.485 101.722 254.649 103.067 254.649 103.067C254.649 103.067 253.551 104.731 252.964 105.532C253.476 107.089 254.314 110.286 254.314 110.286L254.818 112.586C254.818 112.586 255.085 113.99 255.199 114.698C255.29 115.255 255.373 115.815 255.447 116.378C255.572 117.31 255.756 119.195 255.756 119.195C255.756 119.195 255.895 121.063 255.932 122.006C255.963 122.804 255.979 123.605 255.979 124.411V182.317C255.979 182.317 256.326 226.265 141.701 226.265C27.0756 226.265 22.0684 182.317 22.0684 182.317C22.0684 182.317 22.0684 175.775 22.0684 171.583C22.0684 169.138 22.0684 167.766 22.0684 165.321C22.0684 163.117 21.7145 161.852 22.0684 159.677C22.2585 158.509 22.6082 157.905 22.8111 156.739C23.4721 152.941 22.0684 146.896 22.0684 146.896V124.411C22.0684 121.186 22.3241 118.02 22.8111 114.932C21.0467 113.529 19.393 111.998 17.8625 110.356C16.727 109.138 15.6789 107.965 14.5951 106.701C13.5111 105.077 12.4363 103.324 11.4802 101.621C11.0523 100.859 10.6461 100.084 10.2622 99.2971C9.86448 98.4816 10.4579 99.6934 9.14195 96.8125C7.82603 93.9316 7.39798 91.7925 7.39798 91.7925C7.39798 91.7925 6.66424 88.9266 6.40314 87.4589C6.12605 85.9014 5.81796 82.7181 5.81796 82.7181C5.81796 82.7181 5.68126 77.3147 5.98632 74.5552ZM84.913 97.9791C59.5329 97.9793 38.9583 118.555 38.9583 143.935C38.9584 158.568 45.7978 171.604 56.4543 180.02C64.2808 186.201 67.0442 178.706 90.7851 178.706C114.526 178.706 105.546 186.201 113.373 180.02C124.029 171.604 130.869 158.568 130.869 143.935C130.869 118.555 110.293 97.9791 84.913 97.9791ZM194.932 97.9791C169.552 97.9793 148.977 118.555 148.977 143.935C148.977 158.568 155.817 171.604 166.473 180.02C174.3 186.201 165.939 178.706 188.735 178.706C211.532 178.706 215.565 186.201 223.392 180.02C234.048 171.604 240.888 158.568 240.888 143.935C240.888 118.555 220.312 97.9791 194.932 97.9791Z" fill="url(#paint0_radial_804_3)" shape-rendering="crispEdges"/>
<path d="M121.813 146.896C121.813 160.23 111.004 171.04 97.6689 171.04C84.3342 171.04 73.5243 160.23 73.5243 146.896C73.5243 133.561 84.3342 122.751 97.6689 122.751C111.004 122.751 121.813 133.561 121.813 146.896Z" fill="url(#paint1_radial_804_3)" shape-rendering="crispEdges"/>
<path d="M206.319 146.896C206.319 160.23 195.509 171.04 182.175 171.04C168.84 171.04 158.03 160.23 158.03 146.896C158.03 133.561 168.84 122.751 182.175 122.751C195.509 122.751 206.319 133.561 206.319 146.896Z" fill="url(#paint2_radial_804_3)" shape-rendering="crispEdges"/>
<path d="M148.977 143.935C148.977 118.555 169.552 97.9793 194.932 97.9791C220.312 97.9791 240.888 118.555 240.888 143.935C240.888 158.568 234.048 171.604 223.392 180.02C215.565 186.201 211.532 178.706 188.735 178.706C165.939 178.706 174.3 186.201 166.473 180.02C155.817 171.604 148.977 158.568 148.977 143.935ZM38.9583 143.935C38.9583 118.555 59.5329 97.9793 84.913 97.9791C110.293 97.9791 130.869 118.555 130.869 143.935C130.869 158.568 124.029 171.604 113.373 180.02C105.546 186.201 114.526 178.706 90.7851 178.706C67.0442 178.706 64.2808 186.201 56.4543 180.02C45.7978 171.604 38.9584 158.568 38.9583 143.935ZM5.98632 74.5552C6.27983 71.8999 6.35356 68.9656 6.28157 65.8457C6.22557 63.4188 5.88391 58.2722 5.88391 58.2722L5.34372 52.0945C5.34372 52.0945 5.02559 48.9192 4.82079 46.8848C4.55193 44.2138 4.12977 40.0455 4.12977 40.0455C4.12977 40.0455 3.82358 36.7937 3.69234 35.1948C3.44915 32.2319 3.18898 26.5879 3.18898 26.5879C3.18898 26.5879 2.90926 20.652 3.51955 16.9263C4.08649 13.4653 4.03579 11.1954 6.01331 8.29892C7.3322 6.36717 8.25676 5.21438 10.3469 4.16441C12.7194 2.97257 14.3747 2.99897 17.0904 3.29914C21.1096 3.74351 31.2681 8.29892 31.2681 8.29892L36.1018 11.0271C36.1018 11.0271 39.6274 13.2223 41.4277 14.4431C43.1274 15.5955 44.8456 16.8179 46.5724 18.1013C49.1649 20.0283 54.3722 24.2648 54.3722 24.2648L57.7149 27.1285L62.5073 31.4731L69.7246 38.5936L73.5382 42.6789C73.5382 42.6789 75.3962 44.7428 76.5512 46.0962C82.1749 52.6859 86.2244 58.2463 89.5814 64.0495H175.309C176.845 61.552 178.8 58.9898 181.094 56.4053C183.14 54.1006 187.986 49.4685 187.986 49.4685C187.986 49.4685 192.483 45.5159 194.932 43.5725C199.636 39.8406 210.147 32.8239 210.147 32.8239C210.147 32.8239 212.414 31.4062 213.558 30.7145C214.94 29.8793 217.729 28.2631 217.729 28.2631C217.729 28.2631 223.698 24.9547 226.68 23.4544C229.018 22.2784 233.648 20.1391 233.648 20.1391C233.648 20.1391 237.258 18.5626 239.027 17.8518C240.851 17.1191 242.647 16.443 244.404 15.8291C247.999 14.573 254.619 12.8883 254.619 12.8883C254.619 12.8883 256.082 12.5855 256.793 12.4595C258.149 12.219 260.696 11.9289 260.696 11.9289C260.696 11.9289 264.591 11.7406 266.266 11.9289C274.062 12.8058 276.754 17.7868 276.692 24.9759C276.683 26.0264 276.497 28.2631 276.497 28.2631C276.497 28.2631 276.176 30.7944 275.933 32.1259C275.57 34.1167 274.53 38.3498 274.53 38.3498C274.53 38.3498 273.439 42.3158 272.814 44.3624C272.085 46.7483 270.48 51.6362 270.48 51.6362L267.692 59.9542C267.692 59.9542 266.78 62.699 266.34 64.0585C265.682 66.0917 264.471 70.0706 264.471 70.0706C264.471 70.0706 264.034 71.5735 263.828 72.3148C263.435 73.7268 262.752 76.467 262.752 76.467L261.402 83.8806C261.073 85.8305 260.888 86.9238 260.559 88.8737L259.618 92.3679C259.618 92.3679 259 94.2375 258.647 95.1497C258.071 96.6414 256.696 99.4974 256.696 99.4974C256.696 99.4974 256.268 100.318 255.979 100.836C255.485 101.722 254.649 103.067 254.649 103.067C254.649 103.067 253.551 104.731 252.964 105.532C253.476 107.089 254.314 110.286 254.314 110.286L254.818 112.586C254.818 112.586 255.085 113.99 255.199 114.698C255.29 115.255 255.373 115.815 255.447 116.378C255.572 117.31 255.756 119.195 255.756 119.195C255.756 119.195 255.895 121.063 255.932 122.006C255.963 122.804 255.979 123.605 255.979 124.411V182.317C255.979 182.317 256.326 226.265 141.701 226.265C27.0756 226.265 22.0684 182.317 22.0684 182.317C22.0684 182.317 22.0684 175.775 22.0684 171.583C22.0684 169.138 22.0684 167.766 22.0684 165.321C22.0684 163.117 21.7145 161.852 22.0684 159.677C22.2585 158.509 22.6082 157.905 22.8111 156.739C23.4721 152.941 22.0684 146.896 22.0684 146.896V124.411C22.0684 121.186 22.3241 118.02 22.8111 114.932C21.0467 113.529 19.393 111.998 17.8625 110.356C16.727 109.138 15.6789 107.965 14.5951 106.701C13.5111 105.077 12.4363 103.324 11.4802 101.621C11.0523 100.859 10.6461 100.084 10.2622 99.2971C9.86448 98.4816 10.4579 99.6934 9.14195 96.8125C7.82603 93.9316 7.39798 91.7925 7.39798 91.7925C7.39798 91.7925 6.66424 88.9266 6.40314 87.4589C6.12605 85.9014 5.81796 82.7181 5.81796 82.7181C5.81796 82.7181 5.68126 77.3147 5.98632 74.5552ZM121.813 146.896C121.813 160.23 111.004 171.04 97.6689 171.04C84.3342 171.04 73.5243 160.23 73.5243 146.896C73.5243 133.561 84.3342 122.751 97.6689 122.751C111.004 122.751 121.813 133.561 121.813 146.896ZM206.319 146.896C206.319 160.23 195.509 171.04 182.175 171.04C168.84 171.04 158.03 160.23 158.03 146.896C158.03 133.561 168.84 122.751 182.175 122.751C195.509 122.751 206.319 133.561 206.319 146.896Z" stroke="#3797A0" stroke-width="0.25" shape-rendering="crispEdges"/>
</g>
<defs>
<filter id="filter0_di_804_3" x="0" y="0" width="281.818" height="231.39" filterUnits="userSpaceOnUse" color-interpolation-filters="sRGB">
<feFlood flood-opacity="0" result="BackgroundImageFix"/>
<feColorMatrix in="SourceAlpha" type="matrix" values="0 0 0 0 0 0 0 0 0 0 0 0 0 0 0 0 0 0 127 0" result="hardAlpha"/>
<feOffset dx="1" dy="1"/>
<feGaussianBlur stdDeviation="2"/>
<feComposite in2="hardAlpha" operator="out"/>
<feColorMatrix type="matrix" values="0 0 0 0 0 0 0 0 0 0 0 0 0 0 0 0 0 0 0.11 0"/>
<feBlend mode="normal" in2="BackgroundImageFix" result="effect1_dropShadow_804_3"/>
<feBlend mode="normal" in="SourceGraphic" in2="effect1_dropShadow_804_3" result="shape"/>
<feColorMatrix in="SourceAlpha" type="matrix" values="0 0 0 0 0 0 0 0 0 0 0 0 0 0 0 0 0 0 127 0" result="hardAlpha"/>
<feOffset/>
<feGaussianBlur stdDeviation="5.1"/>
<feComposite in2="hardAlpha" operator="arithmetic" k2="-1" k3="1"/>
<feColorMatrix type="matrix" values="0 0 0 0 0 0 0 0 0 0 0 0 0 0 0 0 0 0 0.53 0"/>
<feBlend mode="normal" in2="shape" result="effect2_innerShadow_804_3"/>
</filter>
<radialGradient id="paint0_radial_804_3" cx="0" cy="0" r="1" gradientUnits="userSpaceOnUse" gradientTransform="translate(139.909 121.289) rotate(90) scale(148.377 181.909)">
<stop stop-color="#D9D9D9" stop-opacity="0"/>
<stop offset="1" stop-color="#1A464B" stop-opacity="0.3"/>
</radialGradient>
<radialGradient id="paint1_radial_804_3" cx="0" cy="0" r="1" gradientUnits="userSpaceOnUse" gradientTransform="translate(139.909 121.289) rotate(90) scale(148.377 181.909)">
<stop stop-color="#D9D9D9" stop-opacity="0"/>
<stop offset="1" stop-color="#1A464B" stop-opacity="0.3"/>
</radialGradient>
<radialGradient id="paint2_radial_804_3" cx="0" cy="0" r="1" gradientUnits="userSpaceOnUse" gradientTransform="translate(139.909 121.289) rotate(90) scale(148.377 181.909)">
<stop stop-color="#D9D9D9" stop-opacity="0"/>
<stop offset="1" stop-color="#1A464B" stop-opacity="0.3"/>
</radialGradient>
</defs>
</svg>
